<svg xmlns="http://www.w3.org/2000/svg" xml:space="preserve" viewBox="182 277 1075 747"><path d="M0 0c-37.218-12.128-22.658-6.09-62.634.024C-23.164 5.842-37.592 12.512 0 0" style="fill:#fff;fill-opacity:1;fill-rule:nonzero;stroke:none" transform="matrix(1.33333 0 0 -1.33333 484.092 965.216)"/><path d="M0 0c37.218 12.128 22.658 6.09 62.634-.024C23.164-5.842 37.592-12.512 0 0" style="fill:#fff;fill-opacity:1;fill-rule:nonzero;stroke:none" transform="matrix(1.33333 0 0 -1.33333 1068.056 965.096)"/><path d="M0 0c12.414-7.301 27.253-.5 31.61 12.814 3.904 11.927 3.445 25.335-.173 37.204-3.202 10.506-11.341 16.541-21.479 16.25-23.757-.682-25.47-33.472-20.684-50.231C-8.97 9.887-5.985 3.52 0 0m42.441 11.49C34.148-2.44 20.517-9.35 4.586-7.047-9.043-5.077-19.057 7.011-24.552 21.402l-4.014 10.515c.78 3.955 3.448 8.352 4.64 12.678C-19.2 61.757-2.745 72.124 13.959 70.796 31.666 69.39 38.15 50.408 47.353 37.385l3.044-4.308c1.302-1.842-1.868-3.592-2.632-5.724-1.869-5.22-2.242-10.688-5.324-15.863" style="fill:#fff;fill-opacity:1;fill-rule:nonzero;stroke:none" transform="matrix(1.33333 0 0 -1.33333 998.856 1008.005)"/><path d="M0 0c5.36 17.087 4.511 53.282-21.154 53.369-24.322.082-26.711-34.237-20.291-53.352 3.274-9.749 10.78-15.905 20.344-15.831C-11.726-15.742-3.18-10.137 0 0m-37.297-16.73c-12.189 5.993-18.605 17.882-20.297 30.347-.339 2.499-3.083 3.55-3.689 5.933 3.16 2.698 3.86 6.102 4.821 9.92 5.744 22.801 30.082 35.045 51.279 24.99 12.122-5.751 18.704-17.301 21.095-30.176.373-2.007 3.005-3.186 3.175-5.115.178-2.011-2.919-3.049-3.208-4.886C13.982 2.223 7.911-8.536-1.306-14.499c-10.858-7.025-24.305-7.978-35.991-2.231" style="fill:#fff;fill-opacity:1;fill-rule:nonzero;stroke:none" transform="matrix(1.33333 0 0 -1.33333 933.718 990.75)"/><path d="m0 0-10.314 23.455-9.241-20.301C-12.7 2.641-7.064-.695 0 0m4.553-10.7-26.551 6.578c-2.554-5.696-10.884-20.275-8.445-24.384 1.888-3.181 9.638-1.708 7.284-4.772-.418-.544-20.869-1.387-24.914.279 5.906 3.543 9.56 5.265 11.916 10.915l7.026 16.848c-6.322-.16-8.369-5.199-10.988-10.905-1.826 9.111 4.735 17.325 14.438 19.129l16.338 37.661c.383.881 2.42 3.401 2.953 2.153L13.052-2.676c6.365 1.009 8.636 5.513 11.375 11.142 2.054-6.904-2.679-12.8-8.591-16.995.594-4.819 3.799-9.012 5.231-13.509 1.961-6.16 6.284-7.711 12.7-10.889-10.571-2.353-19.454-.164-29.272-1.076-1.104-.103-1.75 1.027-1.753 1.546-.012 2.128 4.608 1.109 6.46 3.2 1.045 1.18 1.354 3.158.677 4.895z" style="fill:#fff;fill-opacity:1;fill-rule:nonzero;stroke:none" transform="matrix(1.33333 0 0 -1.33333 634.716 970.594)"/><path d="M0 0c-.341-10.098 13.148-4.909 9.98-9.377-.415-.585-30.356-1.225-32.263.355 2.937 3.938 8.997.942 10.166 5.026 1.557 8.73 4.589 20.612.256 27.327l-3.013 4.67c-.902 1.397 2.514 2.706 2.888 4.498 1.838 8.792.26 17.546.843 26.861-5.801.319-10.946.939-15.761-.536-5.653-1.733-5.633-7.379-8.534-12.709-2.374 6.451-.629 12.279-.577 18.895l61.412.045c.2-6.27 1.836-12.306-.285-19.125-3.447 5.559-3.353 11.52-9.515 13.07-4.872 1.227-10.125.622-15.589.471l.282-26.02c.471-1.93 3.475-3.157 3.619-5.131.168-2.283-3.234-3.52-3.518-5.746C-.566 15.076.259 7.669 0 0" style="fill:#fff;fill-opacity:1;fill-rule:nonzero;stroke:none" transform="matrix(1.33333 0 0 -1.33333 730.238 1002.584)"/><path d="M0 0c8.71-3.552-32.346-2.004-31.536-1.908-2.307 5.361 9.369-1.134 9.995 8.957.477 7.702.871 15.451.006 23.162l-3.736 5.872c1.913 2.401 4.131 4.859 4.13 8.21l-.011 22.793c-5.576.211-11.249.903-16.424-.717-5.577-1.746-4.586-8.084-8.591-12.559-1.614 6.714.099 12.484.234 18.927l61.046-.008c-.221-6.558 1.883-12.186-.013-19.066-3.611 4.68-3.154 10.558-8.522 12.534-5.005 1.843-10.519 1.188-16.557.843.385-9.287-.966-17.944.743-26.816.334-1.732 2.622-2.866 2.657-4.527.034-1.644-2.639-2.682-2.832-4.399-1.028-9.164-.974-18.619.194-27.769C-8.855.695-1.902.776 0 0" style="fill:#fff;fill-opacity:1;fill-rule:nonzero;stroke:none" transform="matrix(1.33333 0 0 -1.33333 829.218 1012.833)"/><path d="m0 0-27.741-.085c-.939-.003-1.868.106-2.122.458-.282.388-.153 1.526.123 1.89.267.349 1.082.665 2.012.603 4.718-.316 8.01 2.36 7.932 7.111-.124 7.535.488 14.95-.268 22.436-.235 2.321-3.199 3.696-3.53 5.789.851 2.025 3.681 3.543 3.691 6.047l.101 25.044c-5.914-.014-11.981 1.177-17.023-1.118-4.657-2.119-4.127-7.633-7.398-12.067-1.795 6.297-.356 12.214-.296 18.777l61.07.028c-.474-4.377 2.355-18.372-.353-18.164-2.665.204-1.304 10.483-9.805 12.205-4.879.988-9.388.655-14.784.293.543-9.25-.896-17.986.712-26.868.312-1.723 2.922-2.813 2.88-4.505-.107-4.23-5.731 3.332-3.081-31.268.302-3.939 7.989-3.352 9.397-4.648C1.964 1.548 1.74.005 0 0" style="fill:#fff;fill-opacity:1;fill-rule:nonzero;stroke:none" transform="matrix(1.33333 0 0 -1.33333 545.845 1015.721)"/><path d="M0 0c-7.273 11.782-24.926 18.151-33.626 8.504l-.576-59.787-40.373-38.414c15.011-3.642 28.226-8.163 40.07-16.515 8.04 2.382 14.078 7.616 23.153 9.17l-51.431-44.247-10.294 8.691c-29.815 25.171-75.668 21.916-106.551-2.518-21.687-17.158-31.059-45.816-22.615-71.834 5.742-17.695 20.001-30.513 35.183-35.698 19.416-6.631 38.293-2.722 53.458 9.078 15.798 12.294 20.376 34.526 8.837 51.045-6.171 8.833-26.581 13.726-36.972.708-3.973-4.977-3.424-10.609-3.107-17.559-7.916 9.949-5.06 23.652 4.699 31.641 8.644 7.077 19.49 9.228 31.2 5.99 23.626-6.534 32.271-38.638 18.029-62.35-7.328-12.201-18.382-20.322-31.578-25.668-21.049-8.526-44.572-6.679-63.502 6.383-31.629 21.823-35.773 64.685-18.696 96.633 22.97 42.975 76.974 63.572 123.984 57.91l16.309 33.531.133 173.322c.024 30.906 23.65 54.862 53.806 52.118-12.492-4.198-22.597-13.536-22.703-27.307l-.848-110.623 56.579 31.38-.477 117.084c-.024 5.995-9.275 9.278-13.465 9.893-5.479.805-10.945-2.075-15.94-6.799 1.487 9.292 9.828 14.17 17.813 16.887 7.058 2.401 14.242.843 21.518-.04 12.221 33.777 47.08 55.324 81.719 57.472 32.643 2.025 62.485-22.359 58.598-54.505-1.248-10.322-7.098-18.747-14.851-22.77-9.932-5.154-21.034-4.658-29.746 1.446-5.497 3.851-7.652 9.862-7.213 16.318.362 5.325 3.357 11.512 9.139 14.253 5.253 2.491 11.938 2.205 16.224-2.14-7.15.565-13.129-1.47-15.965-7.683-2.282-5-.09-11.822 5.538-15.398 6.279-3.991 14.485-3.464 21.255.737 5.384 3.341 9.279 10.014 9.672 17.656.963 18.733-10.238 35.438-28.678 40.316-20.942 5.539-43.237.552-59.737-13.707-13.013-11.246-19.959-27.412-19.909-44.869l.306-107.007c1.027-5.537 8.056-8.359 12.13-11.312L4.215 31.034C15.31 28.24 23.878 23.257 32.67 16.671c3.521-2.637 10.415-2.348 14.183-.774 7.371 3.079 8.157 10.375 7.304 18.168 4.331-3.728 4.499-8.982 4.981-14.097C60.109 9.666 54.685.862 44.283-2.459l63.773-104.189c6.318-10.322 14.956-18.02 24.816-24.28 16.84-10.69 37.539-11.784 54.987-2.14 11.942 6.601 18.701 19.476 16.842 32.881-.958 6.905-6.167 11.849-11.29 13.429-6.996 2.157-14.12.968-18.479-4.34-2.942-3.584-2.548-8.627-.619-12.455 2.077-4.118 6.605-4.314 11.908-5.312-5.541-3.612-13.188-2.519-17.533 2.305-6.081 6.753-5.617 18.481 1.193 24.598 7.547 6.778 17.916 7.329 26.93 3.302 8.249-3.685 14.153-12.4 14.663-22.9.921-18.95-11.444-35.785-28.871-43.344-32.345-14.029-78.659-1.732-103.861 22.633-6.191-5.853-12.904-9.125-20.993-9.499-9.706-.448-20.336 3.817-23.174 14.082 6.477-4.356 12-7.118 17.867-4.853 10.309 3.979 12.963 16.589 7.261 25.825z" style="fill:#fff;fill-opacity:1;fill-rule:nonzero;stroke:none" transform="matrix(1.33333 0 0 -1.33333 473.508 675.978)"/><path d="M0 0c-44.523-10.736-99.535 2.852-120.558 46.291-12.157-5.462-26.915-3.39-34.553 8.809 6.615-1.133 11.465-4.396 17.567-1.438 6.164 2.989 13.059 8.989 13.068 16.888l.172 151.493-15.047 11.156-37.016-36.214.098-111.41 14.669-11.081-28.338-28.181-33.159 21.275 12.955 14.659.049 126.387-15.055 11.135-34.29-32.999-.045-117.161 14.536-11.23-28.353-27.935-33.158 20.984 12.956 14.879-.133 62.423c-.014 6.263-7.053 9.271-12.321 9.517-10.561.493-17.21-6.237-18.221-16.724-3.537 9.623-.107 18.822 6.006 25.464 6.014 6.534 14.702 9.822 24.44 9.519l.269 54.565c-4.601 3.576-9.016 6.913-13.897 9.781-3.605-.545-6.231-3.216-10.597-2.387l34.051 30.267 32.034-22.249c-7.006-4.829-9.631-10.976-6.808-17.795l47.537 45.093 41.662-28.387 44.199 41.601 39.939-26.913c5.271-3.552 12.387-2.29 17.758.639 5.186 2.829 6.494 8.724 8.001 15.148 3.892-11.73-.35-23.725-8.486-31.628-6.003-5.832-13.612-7.841-22.19-7.827l.158-46.399c.023-6.839 7.45-9.949 13.385-9.762 9.591.304 15.935 6.192 17.158 16.228 3.445-8.978.037-17.968-5.6-24.447-6.146-7.064-14.821-10.119-24.858-9.825-.479-27.456-1.077-53.697.141-80.635 1.184-26.199 18.627-47.49 43.343-54.866 38.086-11.365 81.61 9.705 67.19 26.386-15.057 17.418-44.397 18.624-67.079 15.74 4.244-10.606 12.767-17.237 21.585-24.74-12.502 2.858-19.903 12.993-26.33 23.41-8.835.001-17.219-4.448-25.658-7.081-1.783-.555-4.143 5.587-2.496 6.453 7.487 3.939 16.092 5.056 24.833 7.914-5.86 17.974-7.923 37.379-.255 55.628 11.824 28.136 41.978 45.29 71.981 41.712 10.646-1.27 20.045-5.806 26.06-14.082 6.13-8.435 7.6-18.9 3.398-28.986-3.389-8.135-11.511-15.676-21.956-16.484-6.075-.47-12.085.791-16.278 5.187-3.541 3.715-7.741 9.86-4.714 16.452 1.036-8.163 6.81-13.932 15.022-13.495 12.323.656 20.092 11.231 17.73 23.657-1.745 9.183-9.351 15.795-18.63 17.955-18.885 4.396-37.384-1.001-52.042-14.085-20.355-18.169-25.96-47.837-15.476-73.019 25.223 3.719 58.913 2.16 75.712-17.947 5.706-6.83 5.992-15.758-.203-22.737C19.463 7.338 10.521 2.537 0 0" style="fill:#fff;fill-opacity:1;fill-rule:nonzero;stroke:none" transform="matrix(1.33333 0 0 -1.33333 1183.946 784.477)"/><path d="m0 0-28.424-28.013-32.829 20.931c3.792 5.921 8.558 9.856 13.301 15.408-1.123 22.233 1.358 44.051-1.086 65.843-.898 8.008-12.522 9.469-18.159 7.703-7.484-2.345-11.003-8.018-12.189-16.77-2.502 8.623-1.119 17.29 4.84 24.666 9.733 12.046 23.218 9.933 25.261 11.547.761.602 1.026 2.475 1.026 4.042l.004 40.641c-4.547 3.291-8.592 7.32-13.616 9.358-3.521 1.428-6.506-2.899-11.143-1.59l34.097 30.067 31.296-21.242c-1.837-3.817-4.784-5.447-6.972-8.601l-.273-47.351c-.024-4.084 2.242-7.336 5.55-9.329 5.474-3.296 11.611-2.741 17.18.277 4.945 2.68 7.106 7.597 8.667 13.75 2.66-9.601-.6-18.703-6.367-24.792-6.146-6.489-14.394-9.827-23.857-9.567-.996-4.511-1.28-8.406-1.28-12.692l-.011-53.197z" style="fill:#fff;fill-opacity:1;fill-rule:nonzero;stroke:none" transform="matrix(1.33333 0 0 -1.33333 712.114 730.578)"/><path d="m0 0-98.335-51.692c-35.121-18.462-112.027-49.07-144.683-16.169-6.708 6.758-11.17 15.925-10.654 25.836 3.651-15.282 13.243-27.058 28.674-31.64 38.134-11.322 93.895 12.463 126.433 33.588L2.975 25.846c30.43 19.756 65.169 30.911 101.244 33.337 28.905 1.945 56.427-5.375 79.39-22.03 21.081-15.288 34.231-38.592 34.262-64.431.026-22.645-11.735-43.553-33.533-51.343 7.524 7.315 15.033 13.102 19.372 22.67 8.406 18.534 6.282 39.353-5.235 56.515-12.117 18.059-31.013 29.417-52.652 34.064C99.549 44.565 41.801 21.974 0 0" style="fill:#fff;fill-opacity:1;fill-rule:nonzero;stroke:none" transform="matrix(1.33333 0 0 -1.33333 960.824 361.634)"/><path d="M0 0c8.967-.831 16.421-2.847 24.128 1.891 5.886 3.619 11.657 11.091 11.657 19.91l-.001 84.132c0 6.514-8.441 9.435-13.315 9.272-10.11-.339-15.705-6.885-17.373-16.691-3.301 9.391.152 18.618 6.359 25.505 5.764 6.395 14.831 9.136 24.216 9.235l.717 52.359c.392 28.629 24.219 52.56 53.742 49.72-15.167-4.327-23.333-17.543-23.352-32.379l-.211-162.985C66.54 18.886 57.03-.735 36.224-6.145 24.148-9.286 10.88-7.491 0 0" style="fill:#fff;fill-opacity:1;fill-rule:nonzero;stroke:none" transform="matrix(1.33333 0 0 -1.33333 278.906 770.962)"/><path d="m0 0-52.452-.201c-13.904-2.41-26.248-10.1-33.995-21.737-8.659-13.007-7.801-27.772-.473-41.64-10.15 7.552-13.375 19.707-13.589 31.313-.434 23.656 11.844 45.802 33.565 56.146-3.998 9.053-4.289 18.931.97 27.234 3.362 5.308 8.568 9.454 14.715 9.511-3.455-3.349-6.093-6.081-6.515-9.45-.53-4.234.123-8.343 3.635-11.177 3.301-2.664 8.008-4.442 12.542-4.467l69.244-.371z" style="fill:#fff;fill-opacity:1;fill-rule:nonzero;stroke:none" transform="matrix(1.33333 0 0 -1.33333 335.736 466.31)"/><path d="M0 0c9.904-10.044 9.117-24.497.378-34.968-8.663-10.378-22.794-14.45-36.558-12.992-13.432 1.422-25.53 6.723-36.687 14.345l-54.907 37.507c-28.113 16.614-57.391 19.231-82.117-5.824 15.189 34.226 70.144 25.603 96.33 9.642L-58.3-25.974c14.92-9.094 39.033-13.472 53.444-2.389C3.643-21.826 5.671-10.295-1.047-1.704-1.559-.7-1.567.82 0 0" style="fill:#fff;fill-opacity:1;fill-rule:nonzero;stroke:none" transform="matrix(1.33333 0 0 -1.33333 967.184 781.349)"/><path d="M0 0c19.218 16.559 32.014 42.904 15.79 64.596-5.042 6.742-12.905 10.813-21.296 9.54-9.9-1.503-16.696-10.629-16.061-20.313.441-6.707 5.156-9.718 11.496-11.517-5.031-2.383-10.473-.958-14.388 2.04-8.751 6.703-9.836 25.233 3.515 35.244 10.427 7.819 23.559 8.613 35.446 2.801 10.826-5.294 17.715-16.646 18.584-30.196 1.011-15.744-5.641-30.619-16.197-42.803-16.831-19.43-39.812-31.63-64.86-37.536-5.347-1.261-10.329-2.554-15.842-.939C-40.57-25.356-18.195-15.677 0 0" style="fill:#fff;fill-opacity:1;fill-rule:nonzero;stroke:none" transform="matrix(1.33333 0 0 -1.33333 769.518 407.376)"/><path d="M0 0c-9.081 10.131-22.106 14.691-35.486 16.242-18.532 2.148-36.381-1.793-54.136-7.555-17.872-5.799-33.157-14.949-50.801-22.71C-106.657 14.079-36.031 37.125 2.995 13.636 13.163 7.517 18.183-4.072 13.996-15.513 9.818-26.931-3.118-33.918-15.292-30.106c8.211 1.441 14.935 2.981 18.328 9.552C6.42-13.998 5.672-6.328 0 0" style="fill:#fff;fill-opacity:1;fill-rule:nonzero;stroke:none" transform="matrix(1.33333 0 0 -1.33333 1149.7 377.936)"/><path d="M0 0c11.298-.612 20.491 3.692 25.669 12.598C24.77-.811 13.739-8.713 2.003-10.396c-10.625-1.525-20.647 1.922-27.719 8.88-15.846 15.589-11.177 38.921 1.614 54.771 3.267-2.836 5.226-4.798 7.706-7.675-3.863-8.394-6.281-16.934-5.082-25.893C-19.942 8.2-12.209.661 0 0" style="fill:#fff;fill-opacity:1;fill-rule:nonzero;stroke:none" transform="matrix(1.33333 0 0 -1.33333 1065.795 824.687)"/></svg>