<svg xmlns="http://www.w3.org/2000/svg" xml:space="preserve" width="1438.667" height="1438.667" viewBox="155 250 1130 850"><g fill="#fff" transform="matrix(1.33333 0 0 -1.33333 0 1438.667)"><path d="M363.07 355.089c-37.218-12.128-22.658-6.09-62.634.024 39.47 5.818 25.042 12.488 62.634-.024m437.974.09c37.218 12.128 22.658 6.09 62.634-.024-39.47-5.818-25.042-12.488-62.634.024m-51.9-32.182c12.414-7.301 27.253-.5 31.61 12.814 3.904 11.927 3.445 25.335-.173 37.204-3.202 10.506-11.341 16.541-21.479 16.25-23.757-.682-25.47-33.472-20.684-50.231 1.756-6.15 4.741-12.517 10.726-16.037m42.441 11.49c-8.293-13.93-21.924-20.84-37.855-18.537-13.629 1.97-23.643 14.058-29.138 28.449l-4.014 10.515c.78 3.955 3.448 8.352 4.64 12.678 4.726 17.162 21.181 27.529 37.885 26.201 17.707-1.406 24.191-20.388 33.394-33.411l3.044-4.308c1.302-1.842-1.868-3.592-2.632-5.724-1.869-5.22-2.242-10.688-5.324-15.863m-91.295 1.451c5.36 17.087 4.511 53.282-21.154 53.369-24.322.082-26.711-34.237-20.291-53.352 3.274-9.749 10.78-15.905 20.344-15.831 9.375.072 17.921 5.677 21.101 15.814m-37.297-16.73c-12.189 5.993-18.605 17.882-20.297 30.347-.339 2.499-3.083 3.55-3.689 5.933 3.16 2.698 3.86 6.102 4.821 9.92 5.744 22.801 30.082 35.045 51.279 24.99 12.122-5.751 18.704-17.301 21.095-30.176.373-2.007 3.005-3.186 3.175-5.115.178-2.011-2.919-3.049-3.208-4.886-1.897-12.06-7.968-22.819-17.185-28.782-10.858-7.025-24.305-7.978-35.991-2.231m-186.955 31.848-10.314 23.455-9.241-20.301c6.855-.513 12.491-3.849 19.555-3.154m4.553-10.7-26.551 6.578c-2.554-5.696-10.884-20.275-8.445-24.384 1.888-3.181 9.638-1.708 7.284-4.772-.418-.544-20.869-1.387-24.914.279 5.906 3.543 9.56 5.265 11.916 10.915l7.026 16.848c-6.322-.16-8.369-5.199-10.988-10.905-1.826 9.111 4.735 17.325 14.438 19.129l16.338 37.661c.383.881 2.42 3.401 2.953 2.153l19.442-45.478c6.365 1.009 8.636 5.513 11.375 11.142 2.054-6.904-2.679-12.8-8.591-16.995.594-4.819 3.799-9.012 5.231-13.509 1.961-6.16 6.284-7.711 12.7-10.889-10.571-2.353-19.454-.164-29.272-1.076-1.104-.103-1.75 1.027-1.753 1.546-.012 2.128 4.608 1.109 6.46 3.2 1.045 1.18 1.354 3.158.677 4.895zm67.089-13.293c-.341-10.098 13.148-4.909 9.98-9.377-.415-.585-30.356-1.225-32.263.355 2.937 3.938 8.997.942 10.166 5.026 1.557 8.73 4.589 20.612.256 27.327l-3.013 4.67c-.902 1.397 2.514 2.706 2.888 4.498 1.838 8.792.26 17.546.843 26.861-5.801.319-10.946.939-15.761-.536-5.653-1.733-5.633-7.379-8.534-12.709-2.374 6.451-.629 12.279-.577 18.895l61.412.045c.2-6.27 1.836-12.306-.285-19.125-3.447 5.559-3.353 11.52-9.515 13.07-4.872 1.227-10.125.622-15.589.471l.282-26.02c.471-1.93 3.475-3.157 3.619-5.131.168-2.283-3.234-3.52-3.518-5.746-.957-7.498-.132-14.905-.391-22.574m74.235-7.687c8.71-3.552-32.346-2.004-31.536-1.908-2.307 5.361 9.369-1.134 9.995 8.957.477 7.702.871 15.451.006 23.162l-3.736 5.872c1.913 2.401 4.131 4.859 4.13 8.21l-.011 22.793c-5.576.211-11.249.903-16.424-.717-5.577-1.746-4.586-8.084-8.591-12.559-1.614 6.714.099 12.484.234 18.927l61.046-.008c-.221-6.558 1.883-12.186-.013-19.066-3.611 4.68-3.154 10.558-8.522 12.534-5.005 1.843-10.519 1.188-16.557.843.385-9.287-.966-17.944.743-26.816.334-1.732 2.622-2.866 2.657-4.527.034-1.644-2.639-2.682-2.832-4.399-1.028-9.164-.974-18.619.194-27.769.362-2.834 7.315-2.753 9.217-3.529m-212.53-2.166-27.741-.085c-.939-.003-1.868.106-2.122.458-.282.388-.153 1.526.123 1.89.267.349 1.082.665 2.012.603 4.718-.316 8.01 2.36 7.932 7.111-.124 7.535.488 14.95-.268 22.436-.235 2.321-3.199 3.696-3.53 5.789.851 2.025 3.681 3.543 3.691 6.047l.101 25.044c-5.914-.014-11.981 1.177-17.023-1.118-4.657-2.119-4.127-7.633-7.398-12.067-1.795 6.297-.356 12.214-.296 18.777l61.07.028c-.474-4.377 2.355-18.372-.353-18.164-2.665.204-1.304 10.483-9.805 12.205-4.879.988-9.388.655-14.784.293.543-9.25-.896-17.986.712-26.868.312-1.723 2.922-2.813 2.88-4.505-.107-4.23-5.731 3.332-3.081-31.268.302-3.939 7.989-3.352 9.397-4.648.447-.41.223-1.953-1.517-1.958"/><path d="M355.132 572.018c-7.273 11.782-24.926 18.151-33.626 8.504l-.576-59.787-40.373-38.414c15.011-3.642 28.226-8.163 40.07-16.515 8.04 2.382 14.078 7.616 23.153 9.17l-51.431-44.247-10.294 8.691c-29.815 25.171-75.668 21.916-106.551-2.518-21.687-17.158-31.059-45.816-22.615-71.834 5.742-17.695 20.001-30.513 35.183-35.698 19.416-6.631 38.293-2.722 53.458 9.078 15.798 12.294 20.376 34.526 8.837 51.045-6.171 8.833-26.581 13.726-36.972.708-3.973-4.977-3.424-10.609-3.107-17.559-7.916 9.949-5.06 23.652 4.699 31.641 8.644 7.077 19.49 9.228 31.2 5.99 23.626-6.534 32.271-38.638 18.029-62.35-7.328-12.201-18.382-20.322-31.578-25.668-21.049-8.526-44.572-6.679-63.502 6.383-31.629 21.823-35.773 64.685-18.696 96.633 22.97 42.975 76.974 63.572 123.984 57.91l16.309 33.531.133 173.322c.024 30.906 23.65 54.862 53.806 52.118-12.492-4.198-22.597-13.536-22.703-27.307l-.848-110.623 56.579 31.38-.477 117.084c-.024 5.995-9.275 9.278-13.465 9.893-5.479.805-10.945-2.075-15.94-6.799 1.487 9.292 9.828 14.17 17.813 16.887 7.058 2.401 14.242.843 21.518-.04 12.221 33.777 47.08 55.324 81.719 57.472 32.643 2.025 62.485-22.359 58.598-54.505-1.248-10.322-7.098-18.747-14.851-22.77-9.932-5.154-21.034-4.658-29.746 1.446-5.497 3.851-7.652 9.862-7.213 16.318.362 5.325 3.357 11.512 9.139 14.253 5.253 2.491 11.938 2.205 16.224-2.14-7.15.565-13.129-1.47-15.965-7.683-2.282-5-.09-11.822 5.538-15.398 6.279-3.991 14.485-3.464 21.255.737 5.384 3.341 9.279 10.014 9.672 17.656.963 18.733-10.238 35.438-28.678 40.316-20.942 5.539-43.237.552-59.737-13.707-13.013-11.246-19.959-27.412-19.909-44.869l.306-107.007c1.027-5.537 8.056-8.359 12.13-11.312l-66.284-38.382c11.095-2.794 19.663-7.777 28.455-14.363 3.521-2.637 10.415-2.348 14.183-.774 7.371 3.079 8.157 10.375 7.304 18.168 4.331-3.728 4.499-8.982 4.981-14.097.971-10.302-4.453-19.106-14.855-22.427l63.773-104.189c6.318-10.322 14.956-18.02 24.816-24.28 16.84-10.69 37.539-11.784 54.987-2.14 11.942 6.601 18.701 19.476 16.842 32.881-.958 6.905-6.167 11.849-11.29 13.429-6.996 2.157-14.12.968-18.479-4.34-2.942-3.584-2.548-8.627-.619-12.455 2.077-4.118 6.605-4.314 11.908-5.312-5.541-3.612-13.188-2.519-17.533 2.305-6.081 6.753-5.617 18.481 1.193 24.598 7.547 6.778 17.916 7.329 26.93 3.302 8.249-3.685 14.153-12.4 14.663-22.9.921-18.95-11.444-35.785-28.871-43.344-32.345-14.029-78.659-1.732-103.861 22.633-6.191-5.853-12.904-9.125-20.993-9.499-9.706-.448-20.336 3.817-23.174 14.082 6.477-4.356 12-7.118 17.867-4.853 10.309 3.979 12.963 16.589 7.261 25.825zm532.83-81.374c-44.523-10.736-99.535 2.852-120.558 46.291-12.157-5.462-26.915-3.39-34.553 8.809 6.615-1.133 11.465-4.396 17.567-1.438 6.164 2.989 13.059 8.989 13.068 16.888l.172 151.493-15.047 11.156-37.016-36.214.098-111.41 14.669-11.081-28.338-28.181-33.159 21.275 12.955 14.659.049 126.387-15.055 11.135-34.29-32.999-.045-117.161 14.536-11.23-28.353-27.935-33.158 20.984 12.956 14.879-.133 62.423c-.014 6.263-7.053 9.271-12.321 9.517-10.561.493-17.21-6.237-18.221-16.724-3.537 9.623-.107 18.822 6.006 25.464 6.014 6.534 14.702 9.822 24.44 9.519l.269 54.565c-4.601 3.576-9.016 6.913-13.897 9.781-3.605-.545-6.231-3.216-10.597-2.387l34.051 30.267 32.034-22.249c-7.006-4.829-9.631-10.976-6.808-17.795l47.537 45.093 41.662-28.387 44.199 41.601 39.939-26.913c5.271-3.552 12.387-2.29 17.758.639 5.186 2.829 6.494 8.724 8.001 15.148 3.892-11.73-.35-23.725-8.486-31.628-6.003-5.832-13.612-7.841-22.19-7.827l.158-46.399c.023-6.839 7.45-9.949 13.385-9.762 9.591.304 15.935 6.192 17.158 16.228 3.445-8.978.037-17.968-5.6-24.447-6.146-7.064-14.821-10.119-24.858-9.825-.479-27.456-1.077-53.697.141-80.635 1.184-26.199 18.627-47.49 43.343-54.866 38.086-11.365 81.61 9.705 67.19 26.386-15.057 17.418-44.397 18.624-67.079 15.74 4.244-10.606 12.767-17.237 21.585-24.74-12.502 2.858-19.903 12.993-26.33 23.41-8.835.001-17.219-4.448-25.658-7.081-1.783-.555-4.143 5.587-2.496 6.453 7.487 3.939 16.092 5.056 24.833 7.914-5.86 17.974-7.923 37.379-.255 55.628 11.824 28.136 41.978 45.29 71.981 41.712 10.646-1.27 20.045-5.806 26.06-14.082 6.13-8.435 7.6-18.9 3.398-28.986-3.389-8.135-11.511-15.676-21.956-16.484-6.075-.47-12.085.791-16.278 5.187-3.541 3.715-7.741 9.86-4.714 16.452 1.036-8.163 6.81-13.932 15.022-13.495 12.323.656 20.092 11.231 17.73 23.657-1.745 9.183-9.351 15.795-18.63 17.955-18.885 4.396-37.384-1.001-52.042-14.085-20.355-18.169-25.96-47.837-15.476-73.019 25.223 3.719 58.913 2.16 75.712-17.947 5.706-6.83 5.992-15.758-.203-22.737-6.399-7.208-15.341-12.009-25.862-14.546"/><path d="m534.087 531.068-28.424-28.013-32.829 20.931c3.792 5.921 8.558 9.856 13.301 15.408-1.123 22.233 1.358 44.051-1.086 65.843-.898 8.008-12.522 9.469-18.159 7.703-7.484-2.345-11.003-8.018-12.189-16.77-2.502 8.623-1.119 17.29 4.84 24.666 9.733 12.046 23.218 9.933 25.261 11.547.761.602 1.026 2.475 1.026 4.042l.004 40.641c-4.547 3.291-8.592 7.32-13.616 9.358-3.521 1.428-6.506-2.899-11.143-1.59l34.097 30.067 31.296-21.242c-1.837-3.817-4.784-5.447-6.972-8.601l-.273-47.351c-.024-4.084 2.242-7.336 5.55-9.329 5.474-3.296 11.611-2.741 17.18.277 4.945 2.68 7.106 7.597 8.667 13.75 2.66-9.601-.6-18.703-6.367-24.792-6.146-6.489-14.394-9.827-23.857-9.567-.996-4.511-1.28-8.406-1.28-12.692l-.011-53.197zM720.62 807.777l-98.335-51.692c-35.121-18.462-112.027-49.07-144.683-16.169-6.708 6.758-11.17 15.925-10.654 25.836 3.651-15.282 13.243-27.058 28.674-31.64 38.134-11.322 93.895 12.463 126.433 33.588l101.54 65.923c30.43 19.756 65.169 30.911 101.244 33.337 28.905 1.945 56.427-5.375 79.39-22.03 21.081-15.288 34.231-38.592 34.262-64.431.026-22.645-11.735-43.553-33.533-51.343 7.524 7.315 15.033 13.102 19.372 22.67 8.406 18.534 6.282 39.353-5.235 56.515-12.117 18.059-31.013 29.417-52.652 34.064-46.274 9.937-104.022-12.654-145.823-34.628M209.18 500.78c8.967-.831 16.421-2.847 24.128 1.891 5.886 3.619 11.657 11.091 11.657 19.91l-.001 84.132c0 6.514-8.441 9.435-13.315 9.272-10.11-.339-15.705-6.885-17.373-16.691-3.301 9.391.152 18.618 6.359 25.505 5.764 6.395 14.831 9.136 24.216 9.235l.717 52.359c.392 28.629 24.219 52.56 53.742 49.72-15.167-4.327-23.333-17.543-23.352-32.379l-.211-162.985c-.027-21.083-9.537-40.704-30.343-46.114-12.076-3.141-25.344-1.346-36.224 6.145m42.623 228.49-52.452-.201c-13.904-2.41-26.248-10.1-33.995-21.737-8.659-13.007-7.801-27.772-.473-41.64-10.15 7.552-13.375 19.707-13.589 31.313-.434 23.656 11.844 45.802 33.565 56.146-3.998 9.053-4.289 18.931.97 27.234 3.362 5.308 8.568 9.454 14.715 9.511-3.455-3.349-6.093-6.081-6.515-9.45-.53-4.234.123-8.343 3.635-11.177 3.301-2.664 8.008-4.442 12.542-4.467l69.244-.371zM725.39 492.99c9.904-10.044 9.117-24.497.378-34.968-8.663-10.378-22.794-14.45-36.558-12.992-13.432 1.422-25.53 6.723-36.687 14.345l-54.907 37.507c-28.113 16.614-57.391 19.231-82.117-5.824 15.189 34.226 70.144 25.603 96.33 9.642l55.261-33.684c14.92-9.094 39.033-13.472 53.444-2.389 8.499 6.537 10.527 18.068 3.809 26.659-.512 1.004-.52 2.524 1.047 1.704"/><path d="M577.14 773.47c19.218 16.559 32.014 42.904 15.79 64.596-5.042 6.742-12.905 10.813-21.296 9.54-9.9-1.503-16.696-10.629-16.061-20.313.441-6.707 5.156-9.718 11.496-11.517-5.031-2.383-10.473-.958-14.388 2.04-8.751 6.703-9.836 25.233 3.515 35.244 10.427 7.819 23.559 8.613 35.446 2.801 10.826-5.294 17.715-16.646 18.584-30.196 1.011-15.744-5.641-30.619-16.197-42.803-16.831-19.43-39.812-31.63-64.86-37.536-5.347-1.261-10.329-2.554-15.842-.939 23.243 3.727 45.618 13.406 63.813 29.083m285.137 22.08c-9.081 10.131-22.106 14.691-35.486 16.242-18.532 2.148-36.381-1.793-54.136-7.555-17.872-5.799-33.157-14.949-50.801-22.71 33.766 28.102 104.392 51.148 143.418 27.659 10.168-6.119 15.188-17.708 11.001-29.149-4.178-11.418-17.114-18.405-29.288-14.593 8.211 1.441 14.935 2.981 18.328 9.552 3.384 6.556 2.636 14.226-3.036 20.554m-62.929-335.064c11.298-.612 20.491 3.692 25.669 12.598-.899-13.409-11.93-21.311-23.666-22.994-10.625-1.525-20.647 1.922-27.719 8.88-15.846 15.589-11.177 38.921 1.614 54.771 3.267-2.836 5.226-4.798 7.706-7.675-3.863-8.394-6.281-16.934-5.082-25.893 1.536-11.487 9.269-19.026 21.478-19.687m-494.857-172.25q1.85 0 2.986.94 1.138.94 1.138 3.184 0 2.031-.895 3.153-.894 1.12-3.229 1.121h-.909v-8.398Zm-.909-1.516v-5.821q0-.699.591-.985.591-.289 2.016-.47.423-.062.424-.606 0-.245-.06-.546-.879.06-2.199.105-1.318.045-2.865.046-1.091 0-2.106-.046-1.017-.045-1.896-.105a.6.6 0 0 0-.06.272v.243q0 .515.334.575.635.123 1.03.228a2.2 2.2 0 0 1 .606.243.7.7 0 0 1 .288.333 1.4 1.4 0 0 1 .077.501v15.19q-.001.606-.44.88-.44.272-1.684.423a.56.56 0 0 0-.242.183q-.09.12-.091.424v.273q0 .152.061.242a63 63 0 0 1 3.941-.151h4.579q3.244 0 5.063-1.455 1.82-1.456 1.819-4.064 0-1.182-.455-2.258a5.2 5.2 0 0 0-1.348-1.88q-.896-.803-2.168-1.288-1.274-.486-2.911-.486Zm22.952-5.7q0-.637.818-.849.82-.212 2.699-.213h1.152q.757 0 1.319.167.56.167.986.562.423.393.772 1.016.349.621.683 1.5.09.243.455.243.15 0 .363-.091l.425-.183a29 29 0 0 1-.44-2.106 66 66 0 0 1-.348-2.229q-.032-.364-.197-.455a.73.73 0 0 0-.349-.091q-.243 0-.683.031-.44.03-.955.045-.516.015-1.046.046-.53.03-.925.03h-6.882q-.879 0-2.016-.046-1.137-.045-2.047-.106a.7.7 0 0 0-.06.319v.288q0 .455.302.484 1.154.212 1.653.455.501.243.501.85v15.189q0 .304-.061.501a.75.75 0 0 1-.243.349q-.182.151-.561.258a8 8 0 0 1-1.015.196q-.303.091-.304.516v.273q0 .181.061.333a94 94 0 0 1 2.062-.106q1.091-.045 1.941-.045.424 0 .969.015l1.137.03q.592.015 1.183.046.591.03 1.077.06a3.5 3.5 0 0 0 .06-.606q0-.425-.303-.516-1.305-.181-1.744-.47-.44-.288-.439-.894Zm26.954 5.61-2.577 6.822-2.638-6.822Zm.576-1.517h-6.367l-1.577-4.213a.9.9 0 0 1-.121-.334 2 2 0 0 1-.031-.273q0-.334.319-.546.317-.212 1.289-.364.423-.06.424-.575 0-.214-.061-.516-.819.06-1.728.106-.91.045-1.788.045-.609 0-1.274-.03-.667-.029-1.486-.121a.6.6 0 0 0-.061.273v.243q0 .576.395.606.94.181 1.348.394.41.212.653.727L351.304 298q.244.515.729.515.15 0 .303-.015.15-.015.334-.046l7.306-18.01q.182-.454.698-.681a4.3 4.3 0 0 1 1.122-.319q.454-.091.455-.606 0-.244-.062-.546-.97.06-1.91.106a37 37 0 0 1-2.789.03q-.606-.015-1.243-.045t-1.258-.046q-.623-.014-1.046-.045a.6.6 0 0 0-.061.273v.243q0 .272.106.409a.42.42 0 0 0 .228.166q.788.152 1.167.35.378.196.378.59 0 .182-.09.455zm17.859 1.638-4.821 9.187q-.334.636-.834.879t-1.288.364q-.366.03-.365.606v.137q0 .075.031.167l.03.212a38 38 0 0 1 1.713-.107q1.047-.045 2.29-.045.423 0 1.015.015.59.017 1.198.03.606.016 1.136.046t.865.061q.06-.274.06-.379v-.167q0-.515-.363-.576-.789-.091-1.092-.258-.304-.166-.304-.44 0-.243.213-.636l3.547-7.034 3.488 6.548q.332.576.333.971a.56.56 0 0 1-.333.53q-.334.168-1.153.319-.394.06-.394.576 0 .121.091.546.637-.061 1.592-.107.955-.045 1.683-.045.697 0 1.47.031.773.029 1.561.121.062-.213.062-.349v-.197q0-.545-.365-.576-1.091-.152-1.515-.394-.426-.243-.729-.758l-5.002-9.217v-6.034q0-.334.091-.546a.8.8 0 0 1 .333-.364q.243-.15.652-.258.409-.105 1.077-.196.15-.03.257-.137.107-.106.107-.439a1 1 0 0 0-.016-.137 1 1 0 0 1-.014-.167l-.032-.212q-.485 0-.909.015-.425.016-.848.046-.729.06-1.501.076-.774.015-1.289.015-.546 0-1.258-.015a20 20 0 0 1-1.38-.076q-.395-.03-.774-.046-.378-.015-.772-.015l-.03.212a.5.5 0 0 0-.031.167v.137q0 .333.106.439a.5.5 0 0 0 .258.137q.636.12 1.061.227t.667.243a.74.74 0 0 1 .333.348q.093.212.092.546Zm25.225-.121-2.577 6.822-2.638-6.822Zm.576-1.517h-6.367l-1.577-4.213a.9.9 0 0 1-.121-.334 2 2 0 0 1-.031-.273q0-.334.319-.546.317-.212 1.289-.364.423-.06.424-.575 0-.214-.061-.516-.819.06-1.728.106-.91.045-1.788.045-.609 0-1.274-.03-.667-.029-1.486-.121a.6.6 0 0 0-.061.273v.243q0 .576.395.606.94.181 1.348.394.41.212.653.727L394.964 298q.244.515.729.515.15 0 .303-.015.15-.015.334-.046l7.306-18.01q.182-.454.698-.681a4.3 4.3 0 0 1 1.122-.319q.454-.091.455-.606 0-.244-.062-.546-.97.06-1.91.106a37 37 0 0 1-2.789.03q-.606-.015-1.243-.045t-1.258-.046q-.623-.014-1.046-.045a.6.6 0 0 0-.061.273v.243q0 .272.106.409a.42.42 0 0 0 .228.166q.788.152 1.167.35.378.196.378.59 0 .182-.09.455zm42.507 2.609q0 2.364-.545 4.062t-1.592 2.775-2.607 1.576-3.564.5h-1.88v-15.584q.001-.303.092-.516.091-.211.364-.333.272-.121.757-.182.486-.06 1.304-.061 3.942 0 5.807 2.093 1.864 2.092 1.864 5.67m4.185.575q0-1.788-.607-3.547a9.1 9.1 0 0 0-1.88-3.169q-1.272-1.409-3.244-2.273-1.97-.864-4.669-.864H427.8q-.788 0-1.834-.046t-1.986-.106a.6.6 0 0 0-.061.273v.243q0 .333.107.439.105.107.257.136.88.152 1.41.41.53.257.531.895v15.189q0 .607-.44.865-.44.257-1.501.439-.242.061-.303.197a.9.9 0 0 0-.061.379V298q0 .15.061.303.638-.06 1.137-.076.5-.016.925-.045.424-.03.849-.03h7.034q2.577 0 4.533-.788 1.955-.79 3.274-2.123a8.9 8.9 0 0 0 2.001-3.123q.683-1.789.683-3.821m13.887 8.338v-7.307h4.274q.577 0 .789.47.211.47.364 1.531.03.243.182.319.151.075.394.076.09 0 .288-.016a1.3 1.3 0 0 0 .288-.045 42 42 0 0 1-.106-1.622 32 32 0 0 1-.045-1.561 31 31 0 0 1 .151-2.972.6.6 0 0 0-.288-.076 4 4 0 0 0-.288-.015q-.545 0-.576.425-.182 1.152-.409 1.562-.228.409-.744.409h-4.274v-6.792q0-.638.788-.849.788-.212 2.668-.213h1.273q.91 0 1.532.243.621.243 1.106.682t.85 1.031q.363.592.727 1.32.091.211.424.212a1 1 0 0 0 .364-.091q.213-.09.425-.183a6 6 0 0 0-.136-.454 6 6 0 0 1-.137-.425 3.7 3.7 0 0 1-.242-.727 5 5 0 0 0-.182-.637l-.137-.683a56 56 0 0 0-.151-.727 12 12 0 0 0-.258-.986q-.122-.242-.485-.242-.243 0-.698.031-.454.03-.985.044-.531.017-1.076.046-.546.031-.941.031h-6.882q-.879 0-2.016-.046a83 83 0 0 1-2.047-.106.7.7 0 0 0-.06.319v.288q0 .454.302.484 1.154.212 1.653.455.501.242.501.85v15.189q0 .303-.091.501-.092.197-.349.333a3 3 0 0 1-.667.242q-.41.107-1.047.228-.302.09-.302.546v.288q0 .136.06.288a56 56 0 0 1 4.032-.151h6.216q1.364 0 2.35.09.985.091 1.349.091a.52.52 0 0 0 .486-.272q.09-.243.151-.895.06-.653.212-1.349.092-.516.212-1 .121-.486.364-1.183a5 5 0 0 0-.333-.121 1.1 1.1 0 0 0-.364-.061q-.334 0-.485.273-.365.787-.712 1.349a3.6 3.6 0 0 1-.789.91 2.75 2.75 0 0 1-1.031.5q-.591.151-1.41.151Zm23.558-15.615q0-.637.818-.849.82-.212 2.699-.213h1.152q.757 0 1.319.167.56.167.986.562.423.393.772 1.016.349.621.683 1.5.09.243.455.243.15 0 .363-.091l.425-.183a29 29 0 0 1-.44-2.106 66 66 0 0 1-.348-2.229q-.032-.364-.197-.455a.73.73 0 0 0-.349-.091q-.243 0-.683.031-.44.03-.955.045-.516.015-1.046.046-.53.03-.925.03h-6.882q-.879 0-2.016-.046-1.137-.045-2.047-.106a.7.7 0 0 0-.06.319v.288q0 .455.302.484 1.154.212 1.653.455.501.243.501.85v15.189q0 .304-.061.501a.75.75 0 0 1-.243.349q-.182.151-.561.258a8 8 0 0 1-1.015.196q-.303.091-.304.516v.273q0 .181.061.333a94 94 0 0 1 2.062-.106q1.091-.045 1.941-.045.424 0 .969.015l1.137.03q.592.015 1.183.046.591.03 1.077.06a3.5 3.5 0 0 0 .06-.606q0-.425-.303-.516-1.305-.181-1.744-.47-.44-.288-.439-.894Zm37.688-2.94q-2.547 0-4.457.789-1.91.787-3.153 2.168a9.05 9.05 0 0 0-1.866 3.244q-.621 1.864-.621 4.017-.001 1.788.607 3.608a9.4 9.4 0 0 0 1.91 3.29q1.302 1.47 3.335 2.395 2.031.925 4.851.925 1.546 0 2.896-.212a28 28 0 0 0 2.926-.637q.06-.819.242-2.092.181-1.274.516-2.486l-.395-.076a2 2 0 0 0-.363-.045 1 1 0 0 0-.41.075q-.168.076-.227.318-.334 1.001-.759 1.683a3.65 3.65 0 0 1-1.015 1.092 4 4 0 0 1-1.379.591q-.79.183-1.85.182-1.639 0-2.895-.56a5.64 5.64 0 0 1-2.108-1.608q-.85-1.046-1.289-2.516-.44-1.47-.439-3.321 0-1.97.531-3.668.529-1.7 1.455-2.941a6.8 6.8 0 0 1 2.198-1.941 5.66 5.66 0 0 1 2.759-.697q1.213 0 2.077.228a4.2 4.2 0 0 1 1.485.697q.622.47 1.062 1.197t.804 1.698q.09.243.288.349.196.106.409.107.152 0 .379-.046.226-.046.379-.107a27 27 0 0 1-.379-1.167q-.198-.651-.409-1.334a25 25 0 0 1-.667-2.683 30 30 0 0 0-3.032-.394 44 44 0 0 0-3.396-.122m25.953 8.55-2.577 6.822-2.638-6.822Zm.576-1.517h-6.367l-1.577-4.213a.9.9 0 0 1-.121-.334 2 2 0 0 1-.031-.273q0-.334.319-.546.317-.212 1.289-.364.423-.06.424-.575 0-.214-.061-.516-.819.06-1.728.106-.91.045-1.788.045-.609 0-1.274-.03-.667-.029-1.486-.121a.6.6 0 0 0-.061.273v.243q0 .576.395.606.94.181 1.348.394.41.212.653.727L543.318 298q.244.515.729.515.15 0 .303-.015.15-.015.334-.046l7.306-18.01q.182-.454.698-.681a4.3 4.3 0 0 1 1.122-.319q.454-.091.455-.606 0-.244-.062-.546-.97.06-1.91.106a37 37 0 0 1-2.789.03q-.606-.015-1.243-.045t-1.258-.046q-.623-.014-1.046-.045a.6.6 0 0 0-.061.273v.243q0 .272.106.409a.42.42 0 0 0 .228.166q.788.152 1.167.35.378.196.378.59 0 .182-.09.455zm21.86 3.639q.939 0 1.698.182.758.183 1.304.622.545.439.834 1.167.287.727.288 1.849 0 1.88-.91 2.972t-3.214 1.091h-.909v-7.883Zm.395-1.516h-1.304v-6.337q0-.697.591-.985t2.016-.47q.423-.061.424-.606 0-.244-.06-.546-.879.06-2.199.106-1.318.045-2.865.045-1.091 0-2.106-.045a85 85 0 0 1-1.896-.106.6.6 0 0 0-.06.272v.244q0 .514.334.575.635.122 1.03.227.394.108.606.244.213.135.288.333.077.196.077.501v15.189q-.001.606-.44.88-.44.273-1.684.424a.56.56 0 0 0-.242.182q-.09.12-.091.424v.274q0 .15.061.242a66 66 0 0 1 1.956-.107 49 49 0 0 1 1.985-.045h4.579q1.607 0 2.88-.394 1.274-.395 2.168-1.122a4.9 4.9 0 0 0 1.365-1.728q.47-1 .469-2.214 0-1.606-.985-2.925-.986-1.318-2.714-1.986l4.761-6.943q.545-.789 1.258-1.092a9 9 0 0 1 1.319-.455.4.4 0 0 0 .242-.136q.091-.106.091-.379v-.273a.8.8 0 0 0-.061-.303q-.333.03-.939.045-.607.016-1.259.046t-1.303.045a44 44 0 0 1-1.077.016q-.636 0-1.273.53t-1.243 1.41zm37.383 10.339a.9.9 0 0 0 .395.425q.272.15 1.334.151.241 0 .712.015.47.016 1.016.03.545.016 1.091.046.547.03.94.061a.8.8 0 0 0 .061-.303v-.243q0-.486-.334-.577a10 10 0 0 1-.955-.181 1.6 1.6 0 0 1-.531-.228.66.66 0 0 1-.242-.318 1.3 1.3 0 0 1-.06-.424q0-.061.045-1.152.046-1.092.136-2.698.091-1.609.182-3.488.09-1.88.183-3.562.09-1.684.151-2.926.06-1.243.091-1.516 0-.304.076-.501a.8.8 0 0 1 .272-.348q.197-.152.561-.258.364-.105.94-.197.333-.06.333-.576 0-.212-.06-.515-1.061.06-1.925.105-.864.046-1.956.046-1 0-2.138-.046a50 50 0 0 1-1.894-.105 2.7 2.7 0 0 0-.061.515q0 .333.106.455.106.121.197.121 1.243.212 1.607.501.364.287.364.894 0 .091-.045.97-.045.878-.091 2.183-.045 1.303-.122 2.82-.076 1.516-.151 2.849-.076 1.335-.122 2.305-.045.97-.076 1.183l-6.215-14.463a3.4 3.4 0 0 0-.257-.409.35.35 0 0 0-.288-.137h-.183a.44.44 0 0 0-.182.03l-7.034 16.859q-.03-.395-.075-1.592-.046-1.198-.122-2.744a693 693 0 0 1-.152-3.26l-.136-3.168q-.06-1.455-.106-2.441a71 71 0 0 1-.046-1.076q0-.273.061-.47a.73.73 0 0 1 .243-.349q.182-.152.545-.258.364-.105 1.001-.227.334-.06.334-.576 0-.091-.016-.227a3 3 0 0 0-.046-.288q-.817.06-1.515.105-.697.046-1.395.046-.606 0-1.515-.046a50 50 0 0 1-1.638-.105.6.6 0 0 0-.061.272v.243q0 .333.091.44.092.105.242.136.94.212 1.366.485.424.274.484.819 0 .242.061 1.47t.152 2.911q.09 1.684.182 3.577l.167 3.518q.074 1.622.121 2.714.045 1.09.045 1.152 0 .515-.333.742-.334.228-1.456.409-.333.031-.333.577V298q0 .15.06.303a32 32 0 0 1 1.092-.061q.697-.03 1.425-.046.728-.014 1.364-.03.637-.015.91-.015.545 0 .849-.046.303-.045.485-.105a.47.47 0 0 0 .258-.183q.076-.122.136-.242l5.639-13.613zm20.254-.94v-7.307h4.274q.577 0 .789.47.211.47.364 1.531.03.243.182.319.151.075.394.076.09 0 .288-.016a1.3 1.3 0 0 0 .288-.045 42 42 0 0 1-.106-1.622 32 32 0 0 1-.045-1.561 31 31 0 0 1 .151-2.972.6.6 0 0 0-.288-.076 4 4 0 0 0-.288-.015q-.545 0-.576.425-.182 1.152-.409 1.562-.228.409-.744.409h-4.274v-6.792q0-.638.788-.849.788-.212 2.668-.213h1.273q.91 0 1.532.243.621.243 1.106.682t.85 1.031q.363.592.727 1.32.091.211.424.212a1 1 0 0 0 .364-.091q.213-.09.425-.183a6 6 0 0 0-.136-.454 6 6 0 0 1-.137-.425 3.7 3.7 0 0 1-.242-.727 5 5 0 0 0-.182-.637l-.137-.683a56 56 0 0 0-.151-.727 12 12 0 0 0-.258-.986q-.122-.242-.485-.242-.243 0-.698.031-.454.03-.985.044-.531.017-1.076.046-.546.031-.941.031h-6.882q-.879 0-2.016-.046a83 83 0 0 1-2.047-.106.7.7 0 0 0-.06.319v.288q0 .454.302.484 1.154.212 1.653.455.501.242.501.85v15.189q0 .303-.091.501-.092.197-.349.333a3 3 0 0 1-.667.242q-.41.107-1.047.228-.302.09-.302.546v.288q0 .136.06.288a56 56 0 0 1 4.032-.151h6.216q1.364 0 2.35.09.985.091 1.349.091a.52.52 0 0 0 .486-.272q.09-.243.151-.895.06-.653.212-1.349.092-.516.212-1 .121-.486.364-1.183a5 5 0 0 0-.333-.121 1.1 1.1 0 0 0-.364-.061q-.334 0-.485.273-.365.787-.712 1.349a3.6 3.6 0 0 1-.789.91 2.75 2.75 0 0 1-1.031.5q-.591.151-1.41.151Zm33.169-11.582v10.764q0 .666-.455.94t-1.607.424q-.394.09-.394.576V298q0 .15.06.303a18 18 0 0 1 1.486-.121q.727-.03 1.698-.03.97 0 1.668.03.697.029 1.395.121a3.6 3.6 0 0 0 .06-.546q0-.515-.364-.576-1-.151-1.364-.424t-.364-.88v-17.736a2.4 2.4 0 0 0-.41-.046 10 10 0 0 0-.379-.016 1.15 1.15 0 0 0-.454.107q-.243.107-.515.439l-11.947 15.16v-13.097q0-.304.046-.501a.55.55 0 0 1 .242-.333q.197-.136.577-.243.378-.106 1.015-.228a.5.5 0 0 0 .258-.136q.105-.106.106-.439 0-.214-.06-.516-.76.06-1.426.106t-1.546.046-1.682-.046a46 46 0 0 1-1.471-.106.6.6 0 0 0-.061.273v.243q0 .302.107.424.105.122.257.151 1.091.183 1.456.455.363.273.363.85v15.342q0 .483-.318.742-.319.258-1.44.409-.364.09-.364.576v.137q0 .075.03.167l.03.242q.425-.03.819-.045.393-.016.789-.046.667-.03 1.348-.046.683-.014 1.107-.014.88 0 1.152-.077.274-.075.486-.288zm30.016 1.517a6 6 0 0 0 .091-.94q0-1.365-.728-1.365h-6.033a5 5 0 0 0-.092.667q-.03.395-.03.576 0 .608.213.834a.71.71 0 0 0 .546.228Zm29.167-8.49q-2.547 0-4.457.789-1.91.787-3.153 2.168a9.05 9.05 0 0 0-1.866 3.244q-.621 1.864-.621 4.017-.001 1.788.607 3.608a9.4 9.4 0 0 0 1.91 3.29q1.302 1.47 3.335 2.395 2.031.925 4.851.925 1.546 0 2.896-.212a28 28 0 0 0 2.926-.637q.06-.819.242-2.092.181-1.274.516-2.486l-.395-.076a2 2 0 0 0-.363-.045 1 1 0 0 0-.41.075q-.168.076-.227.318-.334 1.001-.759 1.683a3.65 3.65 0 0 1-1.015 1.092 4 4 0 0 1-1.379.591q-.79.183-1.85.182-1.639 0-2.895-.56a5.64 5.64 0 0 1-2.108-1.608q-.85-1.046-1.289-2.516-.44-1.47-.439-3.321 0-1.97.531-3.668.529-1.7 1.455-2.941a6.8 6.8 0 0 1 2.198-1.941 5.66 5.66 0 0 1 2.759-.697q1.213 0 2.077.228a4.2 4.2 0 0 1 1.485.697q.622.47 1.062 1.197t.804 1.698q.09.243.288.349.196.106.409.107.152 0 .379-.046.226-.046.379-.107a27 27 0 0 1-.379-1.167q-.198-.651-.409-1.334a25 25 0 0 1-.667-2.683 30 30 0 0 0-3.032-.394 44 44 0 0 0-3.396-.122m25.953 8.55-2.577 6.822-2.638-6.822Zm.576-1.517h-6.367l-1.577-4.213a.9.9 0 0 1-.121-.334 2 2 0 0 1-.031-.273q0-.334.319-.546.317-.212 1.289-.364.423-.06.424-.575 0-.214-.061-.516-.819.06-1.728.106-.91.045-1.788.045-.609 0-1.274-.03-.667-.029-1.486-.121a.6.6 0 0 0-.061.273v.243q0 .576.395.606.94.181 1.348.394.41.212.653.727L742.091 298q.244.515.729.515.15 0 .303-.015.15-.015.334-.046l7.306-18.01q.182-.454.698-.681a4.3 4.3 0 0 1 1.122-.319q.454-.091.455-.606 0-.244-.062-.546-.97.06-1.91.106a37 37 0 0 1-2.789.03q-.606-.015-1.243-.045t-1.258-.046q-.623-.014-1.046-.045a.6.6 0 0 0-.061.273v.243q0 .272.106.409a.42.42 0 0 0 .228.166q.788.152 1.167.35.378.196.378.59 0 .182-.09.455zm30.563-.06v10.764q0 .666-.455.94t-1.607.424q-.394.09-.394.576V298q0 .15.06.303a18 18 0 0 1 1.486-.121q.727-.03 1.698-.03.97 0 1.668.03.697.029 1.395.121a3.6 3.6 0 0 0 .06-.546q0-.515-.364-.576-1-.151-1.364-.424t-.364-.88v-17.736a2.4 2.4 0 0 0-.41-.046 10 10 0 0 0-.379-.016 1.15 1.15 0 0 0-.454.107q-.243.107-.515.439l-11.947 15.16v-13.097q0-.304.046-.501a.55.55 0 0 1 .242-.333q.197-.136.577-.243.378-.106 1.015-.228a.5.5 0 0 0 .258-.136q.105-.106.106-.439 0-.214-.06-.516-.76.06-1.426.106t-1.546.046-1.682-.046a46 46 0 0 1-1.471-.106.6.6 0 0 0-.061.273v.243q0 .302.107.424.105.122.257.151 1.091.183 1.456.455.363.273.363.85v15.342q0 .483-.318.742-.319.258-1.44.409-.364.09-.364.576v.137q0 .075.03.167l.03.242q.425-.03.819-.045.393-.016.789-.046.667-.03 1.348-.046.683-.014 1.107-.014.88 0 1.152-.077.274-.075.486-.288zm20.951-6.973q-2.547 0-4.457.789-1.91.787-3.153 2.168a9.05 9.05 0 0 0-1.866 3.244q-.621 1.864-.621 4.017-.001 1.788.607 3.608a9.4 9.4 0 0 0 1.91 3.29q1.302 1.47 3.335 2.395 2.031.925 4.851.925 1.546 0 2.896-.212a28 28 0 0 0 2.926-.637q.06-.819.242-2.092.181-1.274.516-2.486l-.395-.076a2 2 0 0 0-.363-.045 1 1 0 0 0-.41.075q-.168.076-.227.318-.334 1.001-.759 1.683a3.65 3.65 0 0 1-1.015 1.092 4 4 0 0 1-1.379.591q-.79.183-1.85.182-1.639 0-2.895-.56a5.64 5.64 0 0 1-2.108-1.608q-.85-1.046-1.289-2.516-.44-1.47-.439-3.321 0-1.97.531-3.668.529-1.7 1.455-2.941a6.8 6.8 0 0 1 2.198-1.941 5.66 5.66 0 0 1 2.759-.697q1.213 0 2.077.228a4.2 4.2 0 0 1 1.485.697q.622.47 1.062 1.197t.804 1.698q.09.243.288.349.196.106.409.107.152 0 .379-.046.226-.046.379-.107a27 27 0 0 1-.379-1.167q-.198-.651-.409-1.334a25 25 0 0 1-.667-2.683 30 30 0 0 0-3.032-.394 44 44 0 0 0-3.396-.122m33.473 7.853q0-1.728-.364-3.169-.364-1.44-1.258-2.486-.896-1.047-2.396-1.622-1.5-.577-3.775-.577-2.698.001-4.351.607-1.652.606-2.546 1.652a5.5 5.5 0 0 0-1.198 2.456 14.4 14.4 0 0 0-.303 3.018v10.065q0 .637-.394.895-.395.258-1.607.409-.334.06-.333.576V298q0 .151.06.303a77 77 0 0 1 1.864-.106 51 51 0 0 1 2.35-.045q1.061 0 2.214.045 1.151.045 2.061.106a3 3 0 0 0 .061-.546q0-.515-.333-.576-1.244-.151-1.684-.424t-.439-.88v-9.398q0-3.154 1.168-4.791 1.166-1.638 4.016-1.637 2.912 0 4.139 1.53 1.229 1.532 1.229 4.989v9.307q0 .607-.425.88t-1.607.424q-.364.092-.364.576 0 .091.016.243.014.152.045.303.88-.09 1.622-.121.742-.03 1.592-.03.969 0 1.728.03.758.03 1.485.121a3 3 0 0 0 .061-.546q0-.484-.363-.576-1.122-.121-1.547-.409t-.424-.895Zm25.59-.88v10.764q0 .666-.455.94t-1.607.424q-.394.09-.394.576V298q0 .15.06.303a18 18 0 0 1 1.486-.121q.727-.03 1.698-.03.97 0 1.668.03.697.029 1.395.121a3.6 3.6 0 0 0 .06-.546q0-.515-.364-.576-1-.151-1.364-.424t-.364-.88v-17.736a2.4 2.4 0 0 0-.41-.046 10 10 0 0 0-.379-.016 1.15 1.15 0 0 0-.454.107q-.243.107-.515.439l-11.947 15.16v-13.097q0-.304.046-.501a.55.55 0 0 1 .242-.333q.197-.136.577-.243.378-.106 1.015-.228a.5.5 0 0 0 .258-.136q.105-.106.106-.439 0-.214-.06-.516-.76.06-1.426.106t-1.546.046-1.682-.046a46 46 0 0 1-1.471-.106.6.6 0 0 0-.061.273v.243q0 .302.107.424.105.122.257.151 1.091.183 1.456.455.363.273.363.85v15.342q0 .483-.318.742-.319.258-1.44.409-.364.09-.364.576v.137q0 .075.03.167l.03.242q.425-.03.819-.045.393-.016.789-.046.667-.03 1.348-.046.683-.014 1.107-.014.88 0 1.152-.077.274-.075.486-.288zm-567.73-42.893a2 2 0 0 0-.627-.099q-.463 0-.66.182a.9.9 0 0 0-.265.38q-.759 1.88-1.963 2.706-1.205.824-3.217.824-1.584 0-2.69-.775-1.105-.776-1.105-2.36 0-1.22.841-1.963t2.112-1.303q1.27-.562 2.739-1.089a14.4 14.4 0 0 0 2.739-1.32 7.1 7.1 0 0 0 2.113-2.013q.84-1.221.84-3.136 0-1.254-.428-2.441a5.55 5.55 0 0 0-1.354-2.096q-.923-.908-2.343-1.452-1.42-.545-3.398-.545-2.178 0-3.895.47-1.715.468-2.837 1.018a33 33 0 0 1-.314 2.786 59 59 0 0 1-.478 2.657q.329.132.758.131.396 0 .595-.148.197-.148.329-.512.43-1.254.957-2.161.53-.907 1.222-1.485a4.4 4.4 0 0 1 1.6-.842q.907-.264 2.095-.264 1.024 0 1.749.282.726.28 1.189.743.461.463.693 1.091.23.628.231 1.289 0 1.42-.809 2.231-.808.809-2.013 1.355t-2.607 1.024q-1.402.48-2.607 1.224a6.7 6.7 0 0 0-2.013 1.917q-.808 1.173-.808 3.156 0 1.323.479 2.463.478 1.14 1.402 1.983.922.843 2.227 1.338t2.987.496q1.385 0 2.788-.297 1.403-.296 3.184-.99.066-.989.215-2.227.148-1.238.347-2.228m21.548 3.696v-17.357q0-.332.049-.545a.7.7 0 0 1 .248-.38 1.6 1.6 0 0 1 .56-.28 7 7 0 0 1 1.024-.214q.495-.1.495-.562 0-.098-.017-.297a2 2 0 0 0-.049-.33q-1.057.067-2.261.115-1.205.05-2.128.05-.958 0-2.129-.05a104 104 0 0 1-2.228-.115.9.9 0 0 0-.082.33 4 4 0 0 0-.016.297q0 .23.082.38.082.148.445.214 1.221.165 1.535.446.314.28.314.941v17.357h-2.904q-.925 0-1.568-.182a3.2 3.2 0 0 1-1.122-.56 3.8 3.8 0 0 1-.857-.99 14 14 0 0 1-.777-1.469q-.132-.296-.494-.297a1.6 1.6 0 0 0-.463.083 3 3 0 0 0-.395.148q.23.792.395 1.403.166.61.265 1.204.131.759.198 1.353.065.594.164.858.133.297.528.298.364 0 1.436-.1a29 29 0 0 1 2.591-.099h10.164q1.484 0 2.558.099 1.071.1 1.467.1.364 0 .529-.298.099-.264.148-.858.05-.594.215-1.353.098-.594.247-1.204t.413-1.403a7 7 0 0 0-.413-.148 1.4 1.4 0 0 0-.445-.083q-.364 0-.529.297a14 14 0 0 1-.775 1.469 3.8 3.8 0 0 1-.857.99q-.48.379-1.123.56t-1.535.182Zm36.762-11.648q0-1.881-.396-3.449t-1.37-2.706q-.973-1.139-2.606-1.765-1.635-.628-4.108-.628-2.939 0-4.737.66-1.799.661-2.771 1.799a6 6 0 0 0-1.304 2.673 15.6 15.6 0 0 0-.33 3.283v10.956q0 .693-.429.974-.429.28-1.749.445-.363.066-.363.628v.264q0 .164.066.33a84 84 0 0 1 2.03-.116 57 57 0 0 1 2.557-.049q1.154 0 2.409.049t2.244.116q.034-.166.049-.33.017-.166.017-.264 0-.562-.363-.628-1.354-.164-1.831-.462-.48-.295-.479-.957v-10.229q0-3.433 1.271-5.214 1.27-1.783 4.372-1.782 3.168 0 4.505 1.666 1.336 1.667 1.337 5.428v10.131q0 .662-.463.957-.462.298-1.749.462-.396.1-.396.628 0 .098.017.264.016.164.049.33.957-.1 1.765-.132a43 43 0 0 1 1.733-.033q1.056 0 1.881.033.824.032 1.617.132.034-.166.049-.33.017-.166.017-.264 0-.528-.395-.628-1.222-.132-1.684-.445-.463-.313-.462-.974Zm29.304 1.946q0 2.575-.594 4.422-.593 1.848-1.733 3.019-1.138 1.173-2.838 1.717t-3.877.544h-2.046v-16.962a1.4 1.4 0 0 1 .099-.56q.099-.232.396-.364t.824-.198a12 12 0 0 1 1.419-.065q4.29 0 6.321 2.276 2.029 2.278 2.029 6.171m4.554.627q0-1.947-.66-3.86a10 10 0 0 0-2.046-3.45q-1.386-1.533-3.532-2.474-2.144-.94-5.082-.941h-6.764q-.86 0-1.996-.049-1.14-.05-2.162-.116a.66.66 0 0 0-.066.297v.265q0 .362.115.477.115.116.281.15.956.164 1.535.445.576.28.577.974v16.532q0 .66-.479.94-.479.282-1.633.479-.265.066-.33.215a1 1 0 0 0-.066.413v.264a.9.9 0 0 0 .066.33q.693-.068 1.237-.083.544-.017 1.007-.049.462-.034.923-.033h7.657q2.805 0 4.933-.859 2.13-.858 3.564-2.309a9.7 9.7 0 0 0 2.179-3.4q.742-1.947.742-4.158m15.806-8.282q0-.331.05-.545a.68.68 0 0 1 .264-.38q.214-.165.627-.28a9 9 0 0 1 1.106-.214q.33-.067.33-.561a4 4 0 0 0-.017-.297 2 2 0 0 0-.049-.33q-1.057.067-2.261.115-1.205.05-2.128.05a52 52 0 0 1-2.146-.05q-1.188-.048-2.244-.115a.7.7 0 0 0-.065.33v.297q0 .527.33.561a9 9 0 0 1 1.105.214q.413.115.611.28a.8.8 0 0 1 .263.38q.066.214.067.545v16.532q0 .33-.067.545a.8.8 0 0 1-.263.38q-.198.164-.611.28a9 9 0 0 1-1.105.214q-.33.1-.33.562v.297q0 .197.065.363a102 102 0 0 1 2.244-.116 52 52 0 0 1 2.146-.049q.923 0 2.128.049 1.204.049 2.261.116a4 4 0 0 0 .066-.66q0-.463-.33-.562a9 9 0 0 1-1.106-.214q-.413-.116-.627-.28a.67.67 0 0 1-.264-.38 2.5 2.5 0 0 1-.05-.545Zm23.034-1.122q1.386 0 2.508.61 1.121.61 1.93 1.666.81 1.056 1.254 2.476.446 1.418.446 3.036 0 2.343-.446 4.356-.445 2.012-1.353 3.481-.909 1.468-2.276 2.311-1.371.84-3.185.84-1.156 0-2.244-.51a5.65 5.65 0 0 1-1.914-1.486q-.825-.973-1.321-2.359-.495-1.387-.495-3.135 0-2.443.479-4.521.478-2.08 1.387-3.58.906-1.503 2.227-2.344t3.003-.841m-11.649 9.404q0 2.31.875 4.324a11.3 11.3 0 0 0 2.392 3.531 11.3 11.3 0 0 0 3.547 2.392q2.03.874 4.34.874 2.376 0 4.422-.824a10.7 10.7 0 0 0 3.548-2.31q1.5-1.485 2.359-3.532.857-2.045.857-4.455 0-2.31-.874-4.339a11.1 11.1 0 0 0-2.392-3.531 11.4 11.4 0 0 0-3.565-2.376 11 11 0 0 0-4.355-.875q-2.377 0-4.422.825a10.5 10.5 0 0 0-3.531 2.311 10.9 10.9 0 0 0-2.343 3.515q-.858 2.028-.858 4.47m56.759 9.075v-17.357q0-.332.049-.545a.7.7 0 0 1 .248-.38 1.6 1.6 0 0 1 .56-.28 7 7 0 0 1 1.024-.214q.495-.1.495-.562 0-.098-.017-.297a2 2 0 0 0-.049-.33q-1.057.067-2.261.115-1.205.05-2.128.05-.958 0-2.129-.05a104 104 0 0 1-2.228-.115.9.9 0 0 0-.082.33 4 4 0 0 0-.016.297q0 .23.082.38.082.148.445.214 1.221.165 1.535.446.314.28.314.941v17.357h-2.904q-.925 0-1.568-.182a3.2 3.2 0 0 1-1.122-.56 3.8 3.8 0 0 1-.857-.99 14 14 0 0 1-.777-1.469q-.132-.296-.494-.297a1.6 1.6 0 0 0-.463.083 3 3 0 0 0-.395.148q.23.792.395 1.403.166.61.265 1.204.131.759.198 1.353.065.594.164.858.133.297.528.298.364 0 1.436-.1a29 29 0 0 1 2.591-.099h10.164q1.484 0 2.558.099 1.071.1 1.467.1.364 0 .529-.298.099-.264.148-.858.05-.594.215-1.353.098-.594.247-1.204t.413-1.403a7 7 0 0 0-.413-.148 1.4 1.4 0 0 0-.445-.083q-.364 0-.529.297a14 14 0 0 1-.775 1.469 3.8 3.8 0 0 1-.857.99q-.48.379-1.123.56t-1.535.182Zm24.949-10.889-2.806 7.425-2.871-7.425Zm.627-1.65h-6.931l-1.716-4.587a1 1 0 0 1-.131-.364 2 2 0 0 1-.034-.296q0-.364.347-.594.347-.232 1.402-.396.462-.067.462-.627 0-.231-.065-.561-.892.066-1.881.115a39 39 0 0 1-1.947.05q-.662 0-1.386-.033a25 25 0 0 1-1.617-.132.64.64 0 0 0-.067.297v.264q0 .626.429.66 1.023.198 1.469.429.445.23.71.792l7.953 19.008q.263.561.792.561.164 0 .33-.017.165-.016.362-.049l7.954-19.602q.197-.495.758-.743.562-.247 1.222-.346.495-.099.495-.66 0-.264-.066-.594-1.057.067-2.079.115-1.024.05-1.914.05-.463 0-1.123-.017-.66-.016-1.352-.05a59 59 0 0 0-1.37-.048q-.676-.017-1.138-.05a.64.64 0 0 0-.066.297v.264q0 .297.115.446a.47.47 0 0 0 .248.181q.857.165 1.271.379.412.215.412.644 0 .198-.099.495zm25.081 12.539v-17.357q0-.332.049-.545a.7.7 0 0 1 .248-.38 1.6 1.6 0 0 1 .56-.28 7 7 0 0 1 1.024-.214q.495-.1.495-.562 0-.098-.017-.297a2 2 0 0 0-.049-.33q-1.057.067-2.261.115-1.205.05-2.128.05-.958 0-2.129-.05a104 104 0 0 1-2.228-.115.9.9 0 0 0-.082.33 4 4 0 0 0-.016.297q0 .23.082.38.082.148.445.214 1.221.165 1.535.446.314.28.314.941v17.357h-2.904q-.925 0-1.568-.182a3.2 3.2 0 0 1-1.122-.56 3.8 3.8 0 0 1-.857-.99 14 14 0 0 1-.777-1.469q-.132-.296-.494-.297a1.6 1.6 0 0 0-.463.083 3 3 0 0 0-.395.148q.23.792.395 1.403.166.61.265 1.204.131.759.198 1.353.065.594.164.858.133.297.528.298.364 0 1.436-.1a29 29 0 0 1 2.591-.099h10.164q1.484 0 2.558.099 1.071.1 1.467.1.364 0 .529-.298.099-.264.148-.858.05-.594.215-1.353.098-.594.247-1.204t.413-1.403a7 7 0 0 0-.413-.148 1.4 1.4 0 0 0-.445-.083q-.364 0-.529.297a14 14 0 0 1-.775 1.469 3.8 3.8 0 0 1-.857.99q-.48.379-1.123.56t-1.535.182Zm28.577 0v-17.357q0-.332.049-.545a.7.7 0 0 1 .248-.38 1.6 1.6 0 0 1 .56-.28 7 7 0 0 1 1.024-.214q.495-.1.495-.562 0-.098-.017-.297a2 2 0 0 0-.049-.33q-1.057.067-2.261.115-1.205.05-2.128.05-.958 0-2.129-.05a104 104 0 0 1-2.228-.115.9.9 0 0 0-.082.33 4 4 0 0 0-.016.297q0 .23.082.38.082.148.445.214 1.221.165 1.535.446.314.28.314.941v17.357h-2.904q-.925 0-1.568-.182a3.2 3.2 0 0 1-1.122-.56 3.8 3.8 0 0 1-.857-.99 14 14 0 0 1-.777-1.469q-.132-.296-.494-.297a1.6 1.6 0 0 0-.463.083 3 3 0 0 0-.395.148q.23.792.395 1.403.166.61.265 1.204.131.759.198 1.353.065.594.164.858.133.297.528.298.364 0 1.436-.1a29 29 0 0 1 2.591-.099h10.164q1.484 0 2.558.099 1.071.1 1.467.1.364 0 .529-.298.099-.264.148-.858.05-.594.215-1.353.098-.594.247-1.204t.413-1.403a7 7 0 0 0-.413-.148 1.4 1.4 0 0 0-.445-.083q-.364 0-.529.297a14 14 0 0 1-.775 1.469 3.8 3.8 0 0 1-.857.99q-.48.379-1.123.56t-1.535.182Zm28.247-18.479q1.386 0 2.508.61 1.121.61 1.93 1.666.81 1.056 1.254 2.476.446 1.418.446 3.036 0 2.343-.446 4.356-.445 2.012-1.353 3.481-.909 1.468-2.276 2.311-1.371.84-3.185.84-1.156 0-2.244-.51a5.65 5.65 0 0 1-1.914-1.486q-.825-.973-1.321-2.359-.495-1.387-.495-3.135 0-2.443.479-4.521.478-2.08 1.387-3.58.906-1.503 2.227-2.344t3.003-.841m-11.649 9.404q0 2.31.875 4.324a11.3 11.3 0 0 0 2.392 3.531 11.3 11.3 0 0 0 3.547 2.392q2.03.874 4.34.874 2.376 0 4.422-.824a10.7 10.7 0 0 0 3.548-2.31q1.5-1.485 2.359-3.532.857-2.045.857-4.455 0-2.31-.874-4.339a11.1 11.1 0 0 0-2.392-3.531 11.4 11.4 0 0 0-3.565-2.376 11 11 0 0 0-4.355-.875q-2.377 0-4.422.825a10.5 10.5 0 0 0-3.531 2.311 10.9 10.9 0 0 0-2.343 3.515q-.858 2.028-.858 4.47m42.9-9.404q1.386 0 2.508.61 1.121.61 1.93 1.666.81 1.056 1.254 2.476.446 1.418.446 3.036 0 2.343-.446 4.356-.445 2.012-1.353 3.481-.909 1.468-2.276 2.311-1.371.84-3.185.84-1.156 0-2.244-.51a5.65 5.65 0 0 1-1.914-1.486q-.825-.973-1.321-2.359-.495-1.387-.495-3.135 0-2.443.479-4.521.478-2.08 1.387-3.58.906-1.503 2.227-2.344t3.003-.841m-11.649 9.404q0 2.31.875 4.324a11.3 11.3 0 0 0 2.392 3.531 11.3 11.3 0 0 0 3.547 2.392q2.03.874 4.34.874 2.376 0 4.422-.824a10.7 10.7 0 0 0 3.548-2.31q1.5-1.485 2.359-3.532.857-2.045.857-4.455 0-2.31-.874-4.339a11.1 11.1 0 0 0-2.392-3.531 11.4 11.4 0 0 0-3.565-2.376 11 11 0 0 0-4.355-.875q-2.377 0-4.422.825a10.5 10.5 0 0 0-3.531 2.311 10.9 10.9 0 0 0-2.343 3.515q-.858 2.028-.858 4.47m53.129 2.278a6.4 6.4 0 0 1 1.039 1.799q.347.94.347 1.732 0 1.386-.611 2.112-.61.726-1.6.726-.892 0-1.387-.61-.494-.61-.494-1.469 0-.99.676-2.013.677-1.023 2.03-2.277m-2.311-2.937a7.8 7.8 0 0 1-1.452-1.997q-.56-1.105-.56-2.59 0-.957.346-1.65t.891-1.139q.544-.444 1.254-.643a5.4 5.4 0 0 1 1.469-.198q.659 0 1.237.083.577.082 1.139.28a5.3 5.3 0 0 1 1.122.562 9.6 9.6 0 0 1 1.187.923 95 95 0 0 0-2.92 2.673 127 127 0 0 0-3.713 3.696m17.457-9.668q0-.298-.098-.628-.265.034-.99.049-.727.018-1.584.034-.859.016-1.667.016h-1.204q-.793 0-1.683.66-.892.66-2.409 2.112a11.6 11.6 0 0 0-3.053-2.211q-1.667-.825-3.943-.825-1.386 0-2.575.297-1.188.297-2.062.941a4.34 4.34 0 0 0-1.353 1.633q-.478.99-.478 2.343 0 1.121.395 2.046a6.1 6.1 0 0 0 1.073 1.683q.677.759 1.535 1.386t1.781 1.122a20 20 0 0 0-1.468 1.617q-.577.725-.924 1.369a5.5 5.5 0 0 0-.495 1.222 4.6 4.6 0 0 0-.148 1.138q0 .957.412 1.782a4.5 4.5 0 0 0 1.139 1.435 5.3 5.3 0 0 0 1.732.957 6.7 6.7 0 0 0 2.194.347q2.476 0 3.779-1.155t1.303-2.838q0-1.386-.907-2.706t-2.392-2.211a159 159 0 0 1 3.085-3.069q1.402-1.353 2.524-2.409.561.825 1.04 1.666a19 19 0 0 1 .825 1.617q.347.776.528 1.419.181.644.181 1.04 0 .298-.28.511-.282.216-1.072.413-.265.066-.347.149-.083.082-.082.346 0 .264.099.561.66-.066 1.55-.082a82 82 0 0 1 1.651-.017q.693 0 1.386.017.692.016 1.287.082.033-.165.065-.363.034-.198.033-.264 0-.396-.428-.462a55 55 0 0 0-.677-.165 1.5 1.5 0 0 1-.512-.23 1.9 1.9 0 0 1-.429-.447 5 5 0 0 1-.428-.775 86 86 0 0 0-1.502-3.053 29 29 0 0 0-1.798-3.019 60 60 0 0 1 2.144-1.947q.925-.792 1.601-1.287t1.155-.759.841-.363q.165-.066.479-.132.314-.067.71-.132.46-.033.461-.461m29.766 10.262q2.013 0 3.251 1.022t1.237 3.466q0 2.21-.973 3.432-.974 1.22-3.515 1.221h-.989v-9.141Zm-.989-1.65v-6.336q0-.76.643-1.073t2.195-.511q.461-.066.462-.66 0-.264-.067-.594a69 69 0 0 1-2.392.115q-1.436.05-3.119.05-1.187 0-2.294-.05a81 81 0 0 1-2.062-.115.65.65 0 0 0-.065.297v.264q0 .56.363.627.692.131 1.121.247t.66.264q.231.15.314.363.082.214.083.545v16.532q-.001.662-.479.957-.479.298-1.832.462a.6.6 0 0 0-.264.199q-.099.132-.098.462v.296a.47.47 0 0 0 .065.265 68 68 0 0 1 4.29-.165h4.984q3.53 0 5.51-1.584 1.981-1.585 1.981-4.422 0-1.287-.495-2.459a5.7 5.7 0 0 0-1.469-2.046q-.975-.875-2.359-1.402-1.387-.529-3.168-.528Zm25.673-6.567q0-.331.05-.545a.68.68 0 0 1 .264-.38q.214-.165.627-.28a9 9 0 0 1 1.106-.214q.33-.067.33-.561a4 4 0 0 0-.017-.297 2 2 0 0 0-.049-.33q-1.057.067-2.261.115-1.205.05-2.128.05a52 52 0 0 1-2.146-.05q-1.188-.048-2.244-.115a.7.7 0 0 0-.065.33v.297q0 .527.33.561a9 9 0 0 1 1.105.214q.413.115.611.28a.8.8 0 0 1 .263.38q.066.214.067.545v16.532q0 .33-.067.545a.8.8 0 0 1-.263.38q-.198.164-.611.28a9 9 0 0 1-1.105.214q-.33.1-.33.562v.297q0 .197.065.363a102 102 0 0 1 2.244-.116 52 52 0 0 1 2.146-.049q.923 0 2.128.049 1.204.049 2.261.116a4 4 0 0 0 .066-.66q0-.463-.33-.562a9 9 0 0 1-1.106-.214q-.413-.116-.627-.28a.67.67 0 0 1-.264-.38 2.5 2.5 0 0 1-.05-.545Zm18.447 17.357v-7.953h4.652q.627 0 .859.512.23.51.395 1.667.034.263.198.345a1 1 0 0 0 .429.083q.1 0 .314-.016.215-.018.313-.05a48 48 0 0 1-.115-1.766 35 35 0 0 1-.049-1.699q0-.593.032-1.402.034-.809.132-1.831a.65.65 0 0 0-.313-.083 4 4 0 0 0-.314-.017q-.593 0-.627.462-.198 1.253-.445 1.7-.248.445-.809.445h-4.652v-7.392q0-.694.857-.924.859-.23 2.905-.23h1.385q.991 0 1.667.263.676.264 1.205.742.527.48.923 1.123.397.643.792 1.435.1.23.462.232.166 0 .397-.1.23-.1.462-.197a5 5 0 0 0-.149-.495 8 8 0 0 1-.148-.462 4.3 4.3 0 0 1-.265-.792 6 6 0 0 0-.197-.694l-.149-.742q-.082-.413-.165-.792a12 12 0 0 0-.281-1.073q-.132-.264-.527-.264-.265 0-.759.033-.495.033-1.073.05a48 48 0 0 0-1.171.049q-.594.033-1.024.033h-7.491a54 54 0 0 1-2.194-.05 81 81 0 0 1-2.228-.115.8.8 0 0 0-.065.347v.313q0 .495.33.529 1.254.23 1.798.494.545.264.545.925v16.532q0 .33-.1.545-.098.213-.379.363a3.4 3.4 0 0 1-.726.264q-.445.115-1.138.247-.33.099-.33.594v.314a.8.8 0 0 0 .065.313 63 63 0 0 1 4.39-.165h6.765q1.485 0 2.557.099 1.072.1 1.469.1.362 0 .527-.298.1-.264.165-.973.067-.71.232-1.469.098-.562.23-1.088.132-.53.397-1.288a6 6 0 0 0-.363-.131 1.2 1.2 0 0 0-.396-.067q-.364 0-.528.297a14 14 0 0 1-.776 1.469 3.8 3.8 0 0 1-.858.99 3 3 0 0 1-1.122.544q-.644.165-1.534.165Zm27.621-8.58q1.023 0 1.849.198a3.56 3.56 0 0 1 1.419.677q.593.477.907 1.271.313.79.313 2.012 0 2.047-.99 3.235t-3.498 1.187h-.989v-8.58Zm.43-1.649h-1.419v-6.898q0-.759.643-1.072t2.195-.512q.461-.066.462-.66 0-.264-.067-.594a88 88 0 0 1-5.511.165q-1.187 0-2.294-.05a81 81 0 0 1-2.062-.115.66.66 0 0 0-.065.297v.265q0 .56.363.627.692.131 1.121.247t.66.263q.231.149.314.364.082.213.083.545v16.532q-.001.66-.479.957-.479.296-1.832.462a.6.6 0 0 0-.264.198q-.099.132-.098.462v.297q0 .165.065.265a71 71 0 0 1 2.129-.117 55 55 0 0 1 2.161-.049h4.984q1.749 0 3.134-.428 1.386-.43 2.36-1.222a5.3 5.3 0 0 0 1.485-1.881q.512-1.088.512-2.409-.001-1.748-1.073-3.185-1.073-1.435-2.954-2.161l5.181-7.556q.595-.86 1.37-1.189t1.436-.495a.45.45 0 0 0 .263-.148q.1-.116.099-.412v-.297a.9.9 0 0 0-.065-.33q-.364.032-1.024.048-.66.018-1.369.05-.71.034-1.419.05-.71.017-1.172.017-.693 0-1.386.577-.692.577-1.353 1.534zm29.831-9.967q-2.772 0-4.851.858-2.079.859-3.432 2.36t-2.03 3.531-.676 4.372q0 1.948.66 3.928a10.2 10.2 0 0 0 2.079 3.58q1.418 1.6 3.63 2.607 2.211 1.006 5.28 1.006 1.683 0 3.152-.23 1.467-.232 3.184-.694.066-.89.264-2.277.198-1.386.561-2.705-.166-.034-.429-.083a2.4 2.4 0 0 0-.396-.05 1.05 1.05 0 0 0-.445.083q-.182.082-.248.347-.363 1.088-.824 1.831a4 4 0 0 1-1.107 1.188q-.644.445-1.501.644-.858.198-2.013.197-1.782 0-3.152-.61a6.1 6.1 0 0 1-2.293-1.749q-.924-1.139-1.402-2.739-.48-1.6-.479-3.614 0-2.143.577-3.993.578-1.848 1.584-3.2 1.007-1.354 2.393-2.112a6.14 6.14 0 0 1 3.003-.759q1.32 0 2.261.247a4.6 4.6 0 0 1 1.617.759q.676.51 1.154 1.303.479.793.875 1.848.099.265.314.38a.9.9 0 0 0 .445.115q.165 0 .413-.049.247-.05.412-.116a30 30 0 0 1-.412-1.27q-.216-.71-.446-1.452a28 28 0 0 1-.726-2.92 32 32 0 0 0-3.3-.429 48 48 0 0 0-3.696-.133m24.023 2.839q0-.331.05-.545a.68.68 0 0 1 .264-.38q.214-.165.627-.28a9 9 0 0 1 1.106-.214q.33-.067.33-.561a4 4 0 0 0-.017-.297 2 2 0 0 0-.049-.33q-1.057.067-2.261.115-1.205.05-2.128.05a52 52 0 0 1-2.146-.05q-1.188-.048-2.244-.115a.7.7 0 0 0-.065.33v.297q0 .527.33.561a9 9 0 0 1 1.105.214q.413.115.611.28a.8.8 0 0 1 .263.38q.066.214.067.545v16.532q0 .33-.067.545a.8.8 0 0 1-.263.38q-.198.164-.611.28a9 9 0 0 1-1.105.214q-.33.1-.33.562v.297q0 .197.065.363a102 102 0 0 1 2.244-.116 52 52 0 0 1 2.146-.049q.923 0 2.128.049 1.204.049 2.261.116a4 4 0 0 0 .066-.66q0-.463-.33-.562a9 9 0 0 1-1.106-.214q-.413-.116-.627-.28a.67.67 0 0 1-.264-.38 2.5 2.5 0 0 1-.05-.545Zm28.909 4.752v11.715q0 .726-.495 1.022-.495.298-1.749.462-.429.1-.429.628v.264q0 .164.066.33.823-.1 1.617-.132a45 45 0 0 1 1.847-.033q1.056 0 1.816.033.76.032 1.517.132a3.5 3.5 0 0 0 .067-.594q0-.562-.397-.628-1.088-.164-1.484-.462-.397-.296-.397-.957v-19.304a3 3 0 0 0-.445-.05 10 10 0 0 0-.412-.017 1.2 1.2 0 0 0-.495.116q-.264.116-.562.479l-13.002 16.5v-14.256q0-.331.05-.545a.6.6 0 0 1 .264-.363q.215-.149.627-.264t1.105-.247a.55.55 0 0 0 .282-.149q.115-.116.115-.478 0-.232-.067-.561-.825.066-1.55.115-.727.05-1.683.05-.958 0-1.832-.05a45 45 0 0 1-1.601-.115.65.65 0 0 0-.065.297v.264q0 .329.115.462.115.131.281.165 1.188.198 1.583.494.397.297.397.925v16.697q0 .528-.347.809-.347.28-1.567.445-.397.1-.397.628v.149q0 .082.034.18l.033.265q.46-.034.89-.05.43-.017.859-.05a69 69 0 0 1 2.673-.065q.956 0 1.254-.083a1.2 1.2 0 0 0 .528-.314zm30.819-7.029a65 65 0 0 0-1.488-.231 47 47 0 0 0-1.438-.181 22 22 0 0 0-1.62-.116 55 55 0 0 0-2.033-.034q-2.975 0-5.14.793-2.166.793-3.553 2.26-1.389 1.469-2.067 3.515-.677 2.046-.678 4.554 0 1.946.661 3.927a10.6 10.6 0 0 0 2.029 3.58q1.37 1.601 3.432 2.608 2.062 1.006 4.834 1.006 1.915 0 3.912-.281a34 34 0 0 0 3.778-.742q.066-.892.264-2.277.197-1.386.561-2.706l-.396-.082a2 2 0 0 0-.364-.05q-.263 0-.445.082-.181.083-.247.347-.694 2.277-2.277 3.119-1.585.84-3.927.841-1.783 0-3.152-.611a6 6 0 0 1-2.277-1.749q-.907-1.139-1.386-2.739t-.478-3.613q0-2.211.527-4.059.528-1.848 1.552-3.184a7.1 7.1 0 0 1 2.524-2.08q1.502-.742 3.449-.742.694 0 1.237.066a8 8 0 0 1 1.139.231v4.752q0 .892-.496 1.237-.495.348-1.749.512a.5.5 0 0 0-.362.28 1 1 0 0 0-.099.413q-.001.099.016.297t.05.297q.495-.034 1.105-.066.611-.033 1.255-.05l1.244-.032q.6-.018 1.032-.017t1.014.017l1.195.032a40 40 0 0 1 2.164.116.9.9 0 0 0 .066-.33v-.264q0-.296-.116-.446a.7.7 0 0 0-.28-.214q-1.056-.133-1.469-.429-.412-.297-.412-.99v-5.742a.75.75 0 0 0-.166-.495q-.165-.198-.925-.33"/></g></svg>