<svg xmlns="http://www.w3.org/2000/svg" viewBox="0 0 512 512"><rect width="512" height="512" rx="64" fill="#121212"/><svg x="96" y="56" width="320" height="400" viewBox="415 357 611 727"><g fill="#fff" transform="matrix(1.33333 0 0 -1.33333 0 1438.667)"><path d="M541.05 537.882c-7.273 11.782-24.926 18.151-33.626 8.504l-.576-59.787-40.373-38.414c15.011-3.642 28.226-8.163 40.07-16.515 8.04 2.382 14.078 7.616 23.153 9.17l-51.431-44.247-10.294 8.691c-29.815 25.171-75.668 21.916-106.551-2.518-21.687-17.158-31.059-45.816-22.615-71.834 5.742-17.695 20.001-30.513 35.183-35.698 19.416-6.631 38.293-2.722 53.458 9.078 15.798 12.294 20.376 34.526 8.837 51.045-6.171 8.833-26.581 13.726-36.972.708-3.973-4.977-3.424-10.609-3.107-17.559-7.916 9.949-5.06 23.652 4.699 31.641 8.644 7.077 19.49 9.228 31.2 5.989 23.626-6.533 32.271-38.637 18.029-62.349-7.328-12.201-18.382-20.322-31.578-25.668-21.049-8.526-44.572-6.679-63.502 6.383-31.629 21.823-35.773 64.685-18.696 96.633 22.97 42.975 76.974 63.572 123.984 57.91l16.309 33.531.133 173.322c.024 30.906 23.65 54.862 53.806 52.118-12.492-4.198-22.597-13.536-22.703-27.307l-.848-110.623 56.579 31.38-.477 117.084c-.024 5.995-9.275 9.278-13.465 9.893-5.479.805-10.945-2.075-15.94-6.799 1.487 9.292 9.828 14.17 17.813 16.887 7.058 2.401 14.242.843 21.518-.04 12.221 33.777 47.08 55.324 81.719 57.472 32.643 2.025 62.485-22.359 58.598-54.505-1.248-10.322-7.098-18.747-14.851-22.77-9.932-5.154-21.034-4.658-29.746 1.446-5.497 3.851-7.652 9.862-7.213 16.318.362 5.325 3.357 11.512 9.139 14.253 5.253 2.491 11.938 2.205 16.224-2.14-7.15.565-13.129-1.47-15.965-7.683-2.282-5-.09-11.822 5.538-15.398 6.279-3.991 14.485-3.464 21.255.737 5.384 3.341 9.279 10.014 9.672 17.656.963 18.733-10.238 35.438-28.678 40.316-20.942 5.539-43.237.552-59.737-13.707-13.013-11.246-19.959-27.412-19.909-44.869l.306-107.007c1.027-5.537 8.056-8.359 12.13-11.312l-66.284-38.382c11.095-2.794 19.663-7.777 28.455-14.363 3.521-2.637 10.415-2.348 14.183-.774 7.371 3.079 8.157 10.375 7.304 18.168 4.331-3.728 4.499-8.982 4.981-14.097.971-10.302-4.453-19.106-14.855-22.427l63.773-104.189c6.318-10.322 14.956-18.02 24.816-24.28 16.84-10.69 37.539-11.784 54.987-2.14 11.942 6.601 18.701 19.476 16.842 32.881-.958 6.905-6.167 11.849-11.29 13.429-6.996 2.157-14.12.968-18.479-4.34-2.942-3.584-2.548-8.627-.619-12.455 2.077-4.118 6.605-4.314 11.908-5.312-5.541-3.612-13.188-2.52-17.533 2.305-6.081 6.753-5.617 18.481 1.193 24.597 7.547 6.779 17.916 7.329 26.93 3.303 8.249-3.685 14.153-12.4 14.663-22.9.921-18.95-11.444-35.785-28.871-43.344-32.345-14.029-78.659-1.732-103.861 22.633-6.191-5.853-12.904-9.125-20.993-9.499-9.706-.448-20.336 3.816-23.174 14.082 6.477-4.356 12-7.118 17.867-4.853 10.309 3.979 12.963 16.589 7.261 25.825z"/><path d="M395.098 466.642c8.967-.831 16.421-2.847 24.128 1.891 5.886 3.619 11.657 11.091 11.657 19.91l-.001 84.132c0 6.514-8.441 9.435-13.315 9.272-10.11-.339-15.705-6.885-17.373-16.691-3.301 9.391.152 18.618 6.359 25.505 5.764 6.395 14.831 9.136 24.216 9.235l.717 52.359c.392 28.629 24.219 52.56 53.742 49.72-15.167-4.327-23.333-17.543-23.352-32.379l-.211-162.985c-.027-21.083-9.537-40.704-30.343-46.114-12.076-3.141-25.344-1.346-36.224 6.145m42.622 228.491-52.452-.201c-13.904-2.41-26.248-10.1-33.995-21.737-8.659-13.007-7.801-27.772-.473-41.64-10.15 7.552-13.376 19.707-13.589 31.313-.434 23.656 11.844 45.802 33.565 56.146-3.998 9.053-4.289 18.931.97 27.234 3.362 5.308 8.568 9.454 14.715 9.511-3.455-3.349-6.093-6.081-6.515-9.45-.53-4.234.123-8.343 3.635-11.177 3.301-2.664 8.008-4.442 12.542-4.467l69.244-.371z"/></g></svg></svg>
